<svg xmlns="http://www.w3.org/2000/svg" xmlns:xlink="http://www.w3.org/1999/xlink" version="1.2" viewBox="0 0 375 375"><defs><symbol id="a" overflow="visible"><path d="M1.094 0C1.008 0 .969-.04.969-.125L1-16.828c0-.07.031-.11.094-.11h2.718c.07 0 .11.04.11.11L3.937-.125c0 .086-.03.125-.093.125zm0 0"/></symbol><symbol id="b" overflow="visible"><path d="M1.078 0c-.074 0-.11-.04-.11-.125L1-16.828c0-.07.04-.11.125-.11h2.688c.082 0 .124.04.124.11l-.015 6.61h3.64v-6.61c0-.07.032-.11.094-.11h2.703c.082 0 .125.04.125.11l.047 16.703c0 .086-.043.125-.125.125H7.687c-.085 0-.125-.04-.125-.125v-7.156h-3.64v7.156c0 .086-.04.125-.11.125zm0 0"/></symbol><symbol id="c" overflow="visible"><path d="M5.469.25a4.452 4.452 0 0 1-2.39-.672 5.119 5.119 0 0 1-1.735-1.781 4.693 4.693 0 0 1-.657-2.438l.016-7.718c0-.895.211-1.707.64-2.438a5.038 5.038 0 0 1 1.75-1.75 4.523 4.523 0 0 1 2.376-.656c.875 0 1.664.219 2.375.656a4.983 4.983 0 0 1 1.718 1.75c.438.73.657 1.543.657 2.438l.015 7.718c0 .887-.214 1.7-.64 2.438A4.986 4.986 0 0 1 7.859-.422 4.452 4.452 0 0 1 5.47.25zm0-2.953c.488 0 .914-.195 1.281-.594.363-.394.547-.844.547-1.344l-.016-7.718a1.94 1.94 0 0 0-.515-1.36 1.687 1.687 0 0 0-1.297-.562c-.5 0-.93.183-1.282.547-.355.367-.53.824-.53 1.375v7.718c0 .532.175.993.53 1.375.352.375.782.563 1.282.563zm0 0"/></symbol><symbol id="d" overflow="visible"><path d="M1.078 0c-.074 0-.11-.04-.11-.125l.048-16.703c0-.07.035-.11.109-.11h4.906c.875 0 1.68.22 2.422.657.738.43 1.328 1 1.766 1.718.437.72.656 1.54.656 2.454 0 .593-.09 1.132-.266 1.609-.18.48-.39.887-.64 1.219-.242.336-.461.578-.656.734.874.98 1.312 2.125 1.312 3.438l.031 4.984c0 .086-.043.125-.125.125h-2.75c-.062 0-.093-.023-.093-.078V-5.11c0-.582-.211-1.086-.625-1.516a1.988 1.988 0 0 0-1.516-.656h-1.61L3.922-.125c0 .086-.04.125-.11.125zm2.86-10.188H6.03c.5 0 .942-.187 1.328-.562.395-.375.594-.828.594-1.36 0-.519-.195-.968-.578-1.343a1.836 1.836 0 0 0-1.344-.563H3.938zm0 0"/></symbol><symbol id="e" overflow="visible"><path d="M1.078 0c-.074 0-.11-.04-.11-.125l.048-16.688c0-.082.035-.125.109-.125h2.719c.062 0 .094.043.094.125v5.766l3.828-5.781c.039-.07.097-.11.171-.11h2.797c.063 0 .079.04.047.11l-4.219 6.703 4.72 10.031c.038.063.003.094-.11.094H8.203c-.086 0-.137-.031-.156-.094L4.766-7.25l-.844 1.344v5.781c0 .086-.04.125-.11.125zm0 0"/></symbol><symbol id="f" overflow="visible"><path d="M.14-.125l3.016-16.703c.02-.07.063-.11.125-.11h3.531c.063 0 .102.04.125.11L9.829-.125c.02.086-.012.125-.094.125H7.031c-.062 0-.105-.04-.125-.125l-.265-1.766H3.328L3.063-.125C3.05-.039 3.007 0 2.937 0H.25C.176 0 .14-.04.14-.125zM3.813-4.5h2.344l-1-6.844-.14-.89-.094.89zm0 0"/></symbol><symbol id="g" overflow="visible"><path d="M5.453.25a4.501 4.501 0 0 1-2.422-.672 4.976 4.976 0 0 1-1.719-1.781C.895-2.953.688-3.79.688-4.72l.016-7.593c0-.883.207-1.696.625-2.438a4.9 4.9 0 0 1 1.703-1.781 4.501 4.501 0 0 1 2.422-.672c.883 0 1.68.219 2.39.656a4.796 4.796 0 0 1 1.704 1.766c.426.742.64 1.562.64 2.469v1.124c0 .063-.03.094-.093.094H7.375c-.063 0-.094-.031-.094-.094v-1.124c0-.532-.18-.989-.531-1.376a1.651 1.651 0 0 0-1.297-.593c-.586 0-1.031.199-1.344.594a2.196 2.196 0 0 0-.453 1.374v7.594c0 .606.172 1.094.516 1.469.351.367.781.547 1.281.547.52 0 .953-.203 1.297-.61.352-.414.531-.882.531-1.406v-1.125c0-.062.032-.093.094-.093h2.75c.063 0 .094.03.094.093v1.125c0 .93-.219 1.766-.656 2.516-.43.742-1 1.336-1.72 1.781a4.414 4.414 0 0 1-2.39.672zm0 0"/></symbol><symbol id="h" overflow="visible"><path d="M1.078 0c-.074 0-.11-.04-.11-.125L1-16.828c0-.07.031-.11.094-.11h7.812c.063 0 .094.043.094.125v2.72c0 .073-.031.109-.094.109H3.922v3.796h4.984c.063 0 .094.032.094.094l.031 2.75c0 .063-.039.094-.11.094h-5V-3h5c.071 0 .11.043.11.125v2.781c0 .063-.039.094-.11.094zm0 0"/></symbol><symbol id="i" overflow="visible"><path d="M1.188 0C1.063 0 1-.055 1-.172L.969-16.734c0-.133.066-.203.203-.203h2.187l4.11 9.593-.125-9.39c0-.133.07-.203.218-.203H9.97c.101 0 .156.07.156.203l.016 16.593c0 .094-.043.141-.125.141H7.875L3.672-8.953l.172 8.765c0 .126-.074.188-.219.188zm0 0"/></symbol><symbol id="j" overflow="visible"><path d="M5.516-5.18c-.024-.199-.137-.289-.329-.265l-4.43.511L2.88-8.727c.086-.168.047-.328-.117-.41l-1.297-.71c-.168-.09-.317-.036-.406.12l-3.016 5.36c-.086.148-.082.281.012.414l.789 1.14c.09.133.222.192.375.176l6.195-.734c.191-.016.297-.152.27-.344zm0 0"/></symbol><symbol id="k" overflow="visible"><path d="M5.914-2.969c.176-.09.223-.226.133-.406L4.12-7.215l.91-7.52c.035-.23-.12-.34-.336-.234L2.56-13.895a.414.414 0 0 0-.239.348l-.39 4.813-4.067-2.575a.418.418 0 0 0-.422-.02l-2.136 1.075c-.211.106-.22.3-.008.406l6.527 3.786 1.93 3.84c.09.179.234.222.402.136zm0 0"/></symbol><symbol id="l" overflow="visible"><path d="M6.488-1.668c3.41-1.035 5.11-4.004 4.07-7.426C9.524-12.512 6.462-14.035 3.048-13c-3.402 1.031-5.094 4-4.059 7.418 1.04 3.418 4.094 4.945 7.5 3.914zm-.68-2.242c-1.94.59-3.73-.332-4.363-2.418-.633-2.09.336-3.844 2.282-4.434 1.945-.59 3.742.325 4.375 2.414C8.738-6.254 7.75-4.5 5.809-3.91zm0 0"/></symbol><symbol id="m" overflow="visible"><path d="M5.758-.422C8.328-.738 10.332-2.168 9.984-5l-.882-7.172c-.024-.2-.149-.285-.336-.262l-2.012.246c-.195.024-.285.137-.262.336l.813 6.567c.203 1.648-.477 2.383-1.832 2.547-1.34.168-2.192-.38-2.395-2.024l-.808-6.57c-.024-.195-.137-.285-.336-.262l-2.008.246c-.192.024-.285.141-.262.336l.883 7.176c.348 2.832 2.7 3.723 5.21 3.414zm0 0"/></symbol><symbol id="n" overflow="visible"><path d="M8.098-3.883C9.28-4.422 9.96-5.59 10.016-7.246c.07-2.082-.88-3.723-4.02-3.828l-4.2-.14c-.198-.009-.304.089-.312.288L1.125-.262c-.008.196.094.305.29.309l1.972.066c.191.008.304-.09.312-.289l.117-3.453 1.715.059L7.195.016c.067.156.168.234.336.238l2.242.074c.223.008.32-.133.227-.351zM5.52-8.87c.695.023 1.992.074 1.945 1.562-.055 1.575-1.492 1.536-2.05 1.516l-1.524-.05.101-3.083zm0 0"/></symbol><symbol id="o" overflow="visible"><path d="M4.281 1.43c1.992.527 4.23.218 4.856-2.145.523-1.969-.711-3.215-1.864-4.219-1.109-.949-2.03-1.617-1.82-2.41.164-.625.797-.691 1.543-.496.672.18 1.45.567 2.106 1.043.16.113.308.074.418-.078l.851-1.36c.113-.16.09-.304-.078-.417-.89-.59-1.957-1.094-2.809-1.32-1.937-.512-4-.11-4.597 2.136-.453 1.719.484 2.875 1.593 3.899C5.61-2.902 6.805-2.106 6.582-1.27c-.176.668-.86.813-1.754.575-.766-.203-1.703-.672-2.586-1.32-.16-.114-.304-.106-.418.062L.88-.535c-.121.168-.09.305.078.426 1.215.796 2.27 1.257 3.324 1.539zm0 0"/></symbol><symbol id="p" overflow="visible"><path d="M3.148 1.215c.184.07.317.012.391-.172L7.38-8.91c.07-.188.012-.32-.176-.39l-1.824-.704c-.188-.074-.32-.012-.39.172L1.148.121c-.07.184-.012.317.171.387zm0 0"/></symbol><symbol id="q" overflow="visible"><path d="M4.625 2.363c.172.086.316.047.406-.129l3.985-7.796 2.09 1.07c.175.09.316.039.402-.133l.738-1.434c.09-.18.043-.316-.133-.406l-6.48-3.312c-.172-.086-.317-.047-.406.129l-.735 1.437c-.086.172-.039.32.133.406l2.09 1.07L2.73 1.06c-.09.175-.039.316.133.402zm0 0"/></symbol><symbol id="r" overflow="visible"><path d="M6.586 4.523c.164.11.309.086.418-.078l.914-1.332c.11-.156.086-.304-.078-.418L4.285.254l.895-1.309 3.074 2.11c.164.113.309.086.418-.075L9.52-.254c.113-.164.085-.308-.079-.418l-3.07-2.11 1.785-2.6 3.555 2.44c.164.11.312.079.418-.078l.914-1.332c.113-.164.086-.304-.078-.418L7.547-8.488c-.164-.114-.309-.086-.418.074L1.089.383c-.112.164-.085.304.079.418zm0 0"/></symbol><symbol id="s" overflow="visible"><path d="M2.152 2.602c.125.152.27.164.422.039l8.223-6.801c.152-.125.164-.27.039-.422l-1.25-1.512c-.125-.152-.27-.164-.422-.039L.941.668C.79.793.777.938.902 1.09zm0 0"/></symbol><symbol id="t" overflow="visible"><path d="M3.035 3.344c1.477 1.433 3.582 2.261 5.281.508 1.422-1.465.957-3.153.442-4.594-.504-1.367-.98-2.403-.406-2.992.449-.465 1.035-.215 1.585.324.5.484.989 1.203 1.325 1.941.086.176.234.215.402.133l1.41-.77c.176-.085.227-.218.137-.398-.488-.953-1.172-1.914-1.805-2.527-1.437-1.395-3.433-2.055-5.054-.387-1.235 1.273-.985 2.742-.516 4.18.476 1.457 1.129 2.734.527 3.355-.48.492-1.148.285-1.812-.36C3.98 1.208 3.395.34 2.94-.66c-.086-.176-.214-.242-.394-.152l-1.52.777C.84.05.801.184.887.37c.668 1.293 1.363 2.211 2.148 2.973zm0 0"/></symbol><symbol id="u" overflow="visible"><path d="M5.629 3.629c3.078 1.8 6.41 1.031 8.215-2.05 1.808-3.087.847-6.368-2.23-8.169-3.071-1.8-6.4-1.027-8.204 2.059-1.805 3.082-.851 6.36 2.219 8.16zm1.184-2.02C5.066.586 4.527-1.355 5.625-3.234 6.73-5.121 8.675-5.598 10.43-4.57c1.754 1.023 2.304 2.96 1.199 4.847-1.106 1.887-3.063 2.36-4.816 1.332zm0 0"/></symbol><symbol id="v" overflow="visible"><path d="M5.3 2.29c2.427.905 4.868.562 5.864-2.11l2.531-6.77c.07-.187.004-.32-.175-.387l-1.899-.71c-.184-.07-.316-.008-.387.175l-2.316 6.2C8.34.242 7.398.577 6.118.101 4.854-.371 4.351-1.246 4.933-2.801L7.25-9c.07-.188.008-.316-.176-.387l-1.898-.71c-.18-.067-.317-.008-.387.175l-2.531 6.77c-1 2.675.672 4.554 3.043 5.441zm0 0"/></symbol><symbol id="w" overflow="visible"><path d="M8.629-2.477c1.262-.336 2.125-1.37 2.457-2.996.414-2.043-.25-3.816-3.324-4.445l-4.121-.84c-.192-.039-.313.04-.356.235L1.152-.07c-.039.191.043.312.235.355L3.32.68c.188.035.317-.043.356-.235l.691-3.386 1.684.343L7.09 1.215c.043.168.129.258.293.293l2.199.449c.215.043.34-.082.281-.309zM6.922-7.828c.683.14 1.953.406 1.656 1.867-.316 1.543-1.726 1.266-2.273 1.152l-1.492-.304.613-3.02zm0 0"/></symbol><symbol id="x" overflow="visible"><path d="M13.512-12.219a.352.352 0 0 0-.328.258L11.05-5.625l-3.059-6.152a.354.354 0 0 0-.36-.211c-.206.015-.284.136-.327.258l-2.102 6.5-2.976-5.985a.353.353 0 0 0-.36-.207l-2.16.145c-.227.015-.312.168-.203.375L5.16-.352c.227.41.594.387.738-.05L8.02-6.93l2.996 6.176c.207.414.57.39.742-.05l4.168-11.22c.078-.218-.047-.359-.254-.343zm0 0"/></symbol><symbol id="y" overflow="visible"><path d="M6.523-1.52c3.434-.953 5.204-3.882 4.243-7.324-.957-3.445-3.98-5.039-7.418-4.082-3.426.953-5.188 3.88-4.23 7.32C.077-2.16 3.093-.562 6.522-1.52zm-.628-2.253c-1.95.543-3.72-.418-4.301-2.52-.586-2.105.426-3.836 2.383-4.379 1.957-.547 3.73.41 4.316 2.516.586 2.105-.438 3.84-2.398 4.383zm0 0"/></symbol><symbol id="z" overflow="visible"><path d="M5.445-7.14c.809-1.02.883-2.368.176-3.868-.883-1.887-2.476-2.914-5.32-1.582l-3.805 1.785c-.18.086-.23.223-.144.399l4.53 9.66c.083.18.22.23.4.144l1.788-.84c.172-.078.227-.218.145-.398L1.746-4.969l1.555-.73 3.113 2.441c.133.106.254.13.406.059l2.035-.953c.2-.094.223-.27.04-.418zM.88-10.415c.629-.293 1.808-.84 2.441.508.672 1.43-.629 2.047-1.132 2.285l-1.383.648-1.309-2.793zm0 0"/></symbol><symbol id="A" overflow="visible"><path d="M2.813-1.895c.164-.109.19-.253.082-.417L.27-6.207l5.777 1.922c.152.05.277.027.398-.055L8.723-5.87c.207-.14.183-.328-.059-.402L1.906-8.484l.856-6.512c.035-.254-.13-.363-.34-.219L.328-13.809a.461.461 0 0 0-.223.344L-.69-7.637l-2.375-3.523c-.11-.164-.254-.192-.418-.082l-1.637 1.101c-.164.114-.191.254-.082.418L.757-.87c.11.164.255.191.419.082zm0 0"/></symbol><symbol id="B" overflow="visible"><path d="M2.746 2.484c.121-.109.156-.222.113-.39l-4.273-15.715c-.066-.227-.242-.266-.41-.113l-.942.851c-.125.113-.164.223-.117.383L1.391 3.223c.058.222.238.27.406.117zm0 0"/></symbol><symbol id="C" overflow="visible"><path d="M2.852-7.313a.39.39 0 0 0-.137-.39l-1.05-.906c-.122-.106-.255-.121-.407-.059l-5.653 2.45c-.168.07-.234.214-.164.394l.563 1.367c.062.176.223.227.394.164l4-1.727-.972 4.36c-.047.187.031.312.222.36l1.454.312c.195.054.324-.04.359-.223zm0 0"/></symbol></defs><path fill="#008037" d="M187.41 298.05c-29.539 0-57.351-11.5-78.222-32.413-20.918-20.871-32.415-48.688-32.415-78.227s11.497-57.351 32.415-78.222c20.87-20.918 48.683-32.415 78.222-32.415 29.54 0 57.356 11.497 78.227 32.415 20.914 20.914 32.414 48.683 32.414 78.222 0 29.54-11.5 57.356-32.414 78.227-20.871 20.914-48.688 32.414-78.227 32.414zm0-214.644c-27.77 0-53.902 10.836-73.535 30.469-19.633 19.633-30.469 45.766-30.469 73.535 0 27.77 10.836 53.906 30.469 73.54 19.633 19.632 45.766 30.468 73.535 30.468 27.77 0 53.906-10.836 73.54-30.469 19.632-19.633 30.468-45.77 30.468-73.539 0-27.77-10.836-53.902-30.469-73.535-19.633-19.633-45.77-30.469-73.539-30.469zm0 0"/><path fill="#7ac943" d="M136.52 194.375c8.214 5.695 12.511 6.727 19.59 18.668 7.081 11.941 8.32 20.066 10.183 21.562 1.863 1.493 11.18-.375 16.023-2.988 4.844-2.61 5.028-4.054 9.547-14.644 6.274-14.688 16.457-32.72 24.282-43.168 7.828-10.45 24.3-24.192 25.046-26.805.746-2.613-7.078-3.824-14.53-1.586-7.454 2.238-23.153 19.531-32.634 33.137-10.53 15.117-14.273 27.879-16.136 27.504-1.864-.371-5.504-7.98-10.72-13.578-5.218-5.598-10.714-9.391-17.05-8.27-6.336 1.117-17.39 7.54-13.601 10.168"/><use x="162.461" y="180.395" fill="#006617" xlink:href="#a"/><use x="171.095" y="180.395" fill="#006617" xlink:href="#b"/><use x="186.173" y="180.395" fill="#006617" xlink:href="#c"/><use x="200.813" y="180.395" fill="#006617" xlink:href="#d"/><use x="115.808" y="214.145" fill="#006617" xlink:href="#e"/><use x="130.741" y="214.145" fill="#006617" xlink:href="#b"/><use x="145.819" y="214.145" fill="#006617" xlink:href="#f"/><use x="159.73" y="214.145" fill="#006617" xlink:href="#d"/><use x="174.978" y="214.145" fill="#006617" xlink:href="#g"/><use x="189.521" y="214.145" fill="#006617" xlink:href="#b"/><use x="204.599" y="214.145" fill="#006617" xlink:href="#h"/><use x="218.34" y="214.145" fill="#006617" xlink:href="#i"/><use x="233.15" y="214.145" fill="#006617" xlink:href="#e"/><use x="248.083" y="214.145" fill="#006617" xlink:href="#c"/><use x="137.861" y="123.922" fill="#008037" xlink:href="#j"/><use x="146.029" y="118.268" fill="#008037" xlink:href="#k"/><use x="157.514" y="112.548" fill="#008037" xlink:href="#l"/><use x="171.84" y="108.421" fill="#008037" xlink:href="#m"/><use x="184.874" y="106.972" fill="#008037" xlink:href="#n"/><use x="203.791" y="108.626" fill="#008037" xlink:href="#o"/><use x="214.454" y="111.681" fill="#008037" xlink:href="#p"/><use x="220.667" y="114.079" fill="#008037" xlink:href="#q"/><use x="229.666" y="118.78" fill="#008037" xlink:href="#r"/><use x="115.115" y="242.762" fill="#008037" xlink:href="#s"/><use x="120.162" y="248.792" fill="#008037" xlink:href="#t"/><use x="135.372" y="262.068" fill="#008037" xlink:href="#u"/><use x="150.091" y="270.249" fill="#008037" xlink:href="#v"/><use x="164.122" y="275.181" fill="#008037" xlink:href="#w"/><use x="185.692" y="278.483" fill="#008037" xlink:href="#x"/><use x="206.164" y="276.535" fill="#008037" xlink:href="#y"/><use x="222.248" y="271.647" fill="#008037" xlink:href="#z"/><use x="234.849" y="265.472" fill="#008037" xlink:href="#A"/><use x="246.596" y="257.177" fill="#008037" xlink:href="#B"/><use x="255.171" y="249.153" fill="#008037" xlink:href="#C"/></svg>